<?xml version="1.0" encoding="UTF-8"?>
<svg id="Layer_1" xmlns="http://www.w3.org/2000/svg" version="1.1" viewBox="0 0 720 164.4">
  <!-- Generator: Adobe Illustrator 29.8.1, SVG Export Plug-In . SVG Version: 2.1.1 Build 2)  -->
  <defs>
    <style>
      .st0 {
        fill: #f6921e;
      }

      .st1 {
        fill: #de2726;
      }

      .st2 {
        fill: #fff;
      }

      .st3 {
        fill: #404041;
      }

      .st4 {
        fill: #faaf40;
      }

      .st5 {
        fill: #ed3024;
      }

      .st6 {
        fill: #fff100;
      }
    </style>
  </defs>
  <g>
    <path class="st3" d="M121.7,127.6c0-2.4,1.6-3.5,3.1-4.7,1.9-1.2,3.3-2.4,3.3-5.2v-59.2c0-3.3-1.7-4.7-3.5-5.9-1.6-1.2-3.1-2.4-3.1-5s1.9-4.1,4.3-4.1h16.1c3.6,0,5.9,2.4,5.9,6.2v68c0,2.8,1.6,4,3.3,5.2,1.6,1.2,3.1,2.2,3.1,4.7s-1.6,4-4.1,4h-23.8c-2.6,0-4.5-1.6-4.5-4ZM125.2,19.7c0-6.7,4.7-11.2,11.9-11.2s11.9,4.5,11.9,11.2-4.7,11.4-11.9,11.4-11.9-4.7-11.9-11.4Z"/>
    <path class="st3" d="M163.3,144.2c0-5.9,4-9.2,9.2-9.2s8.3,4.3,10.5,9.5c2.6,6,5.9,12.8,17.6,12.8s22.8-9,22.8-24.5v-19.3c-6.7,9-16.6,13.6-28.3,13.6-22.4,0-37.1-16.6-37.1-41.8s15.7-43.5,40.4-43.5,20.9,4,28.7,11.4c1.4-1.4,2.4-2.9,3.5-4.5,2.4-3.5,4.3-6,7.8-6s4.8,2.1,4.8,5.4v79.4c0,23-16.7,37-43.2,37s-36.6-8.1-36.6-20.2ZM204.3,116.7c8.5,0,15.5-5.2,19.2-13.6v-31.6c-4.1-12.3-12.4-22.6-23.7-22.6s-22.1,12.4-22.1,28.8,10,39,26.6,39Z"/>
    <path class="st3" d="M252.3,127.6c0-2.4,1.6-3.5,3.1-4.7,1.9-1.2,3.3-2.4,3.3-5.2v-59.2c0-3.3-1.7-4.7-3.5-5.9-1.6-1.2-3.1-2.4-3.1-5s1.9-4.1,4.3-4.1h16.1c3.6,0,5.9,2.4,5.9,6.2v7.6c7.8-9.5,19.2-15.5,31.8-15.5s27.5,10,27.5,26.6v49.4c0,2.8,1.6,4,3.3,5.2,1.6,1.2,3.1,2.2,3.1,4.7s-1.7,4-4.3,4h-23.8c-2.6,0-4.3-1.6-4.3-4s1.6-3.5,3.1-4.7c1.7-1.2,3.3-2.4,3.3-5.2v-48.5c0-9.8-6.7-16.2-16.6-16.2s-17.8,5.5-23,14.2v50.6c0,2.8,1.6,4,3.3,5.2,1.6,1.2,3.1,2.2,3.1,4.7s-1.6,4-4.1,4h-23.8c-2.6,0-4.5-1.6-4.5-4Z"/>
    <path class="st3" d="M347.1,127.6c0-2.4,1.6-3.5,3.1-4.7,1.9-1.2,3.3-2.4,3.3-5.2v-59.2c0-3.3-1.7-4.7-3.5-5.9-1.6-1.2-3.1-2.4-3.1-5s1.9-4.1,4.3-4.1h16.1c3.6,0,5.9,2.4,5.9,6.2v68c0,2.8,1.6,4,3.3,5.2,1.6,1.2,3.1,2.2,3.1,4.7s-1.6,4-4.1,4h-23.8c-2.6,0-4.5-1.6-4.5-4ZM350.5,19.7c0-6.7,4.7-11.2,11.9-11.2s11.9,4.5,11.9,11.2-4.7,11.4-11.9,11.4-11.9-4.7-11.9-11.4Z"/>
    <path class="st3" d="M393,112.3v-60.9h-9c-2.2,0-3.8-1.6-3.8-4s2.4-3.6,5.7-4.7c9.3-2.6,14.8-6.7,18.3-16.1,1.2-3.1,2.2-5.4,4.8-5.4s3.6,1.6,3.6,3.8v18.5h20c2.6,0,4,1.6,4,4s-1.4,3.8-4,3.8h-20v60.1c0,6.2,3.8,10.4,9.3,10.4s5.7-1.4,7.9-2.6c1.7-1,3.3-1.9,4.5-1.9,1.7,0,2.9,1.4,2.9,3.1,0,4.8-9.5,12.9-22.4,12.9s-21.9-8.5-21.9-21.1Z"/>
    <path class="st3" d="M439.6,127.6c0-2.4,1.6-3.5,3.1-4.7,1.9-1.2,3.3-2.4,3.3-5.2v-59.2c0-3.3-1.7-4.7-3.5-5.9-1.6-1.2-3.1-2.4-3.1-5s1.9-4.1,4.3-4.1h16.1c3.6,0,5.9,2.4,5.9,6.2v68c0,2.8,1.6,4,3.3,5.2,1.6,1.2,3.1,2.2,3.1,4.7s-1.6,4-4.1,4h-23.8c-2.6,0-4.5-1.6-4.5-4ZM443.1,19.7c0-6.7,4.7-11.2,11.9-11.2s11.9,4.5,11.9,11.2-4.7,11.4-11.9,11.4-11.9-4.7-11.9-11.4Z"/>
    <path class="st3" d="M475.7,87.6c0-27.6,17.6-45.8,44.5-45.8s44.4,18.1,44.4,45.8-17.6,45.8-44.4,45.8-44.5-18.1-44.5-45.8ZM545.1,95c0-23.7-11.4-45.9-28.1-45.9s-21.6,13.3-21.6,31.3,11.2,45.8,28.1,45.8,21.6-12.4,21.6-31.1Z"/>
    <path class="st3" d="M568.9,127.6c0-2.4,1.6-3.5,3.1-4.7,1.9-1.2,3.3-2.4,3.3-5.2v-59.2c0-3.3-1.7-4.7-3.5-5.9-1.6-1.2-3.1-2.4-3.1-5s1.9-4.1,4.3-4.1h16.1c3.6,0,5.9,2.4,5.9,6.2v7.6c7.8-9.5,19.2-15.5,31.8-15.5s27.5,10,27.5,26.6v49.4c0,2.8,1.6,4,3.3,5.2,1.6,1.2,3.1,2.2,3.1,4.7s-1.7,4-4.3,4h-23.8c-2.6,0-4.3-1.6-4.3-4s1.6-3.5,3.1-4.7c1.7-1.2,3.3-2.4,3.3-5.2v-48.5c0-9.8-6.7-16.2-16.6-16.2s-17.8,5.5-23,14.2v50.6c0,2.8,1.6,4,3.3,5.2,1.6,1.2,3.1,2.2,3.1,4.7s-1.6,4-4.1,4h-23.8c-2.6,0-4.5-1.6-4.5-4Z"/>
  </g>
  <g>
    <path class="st5" d="M684.4,92.2h31.7c2.1,0,3.8,1.7,3.8,3.8v31.7c0,2.1-1.7,3.8-3.8,3.8h-31.7c-2.1,0-3.8-1.7-3.8-3.8v-31.7c0-2.1,1.7-3.8,3.8-3.8Z"/>
    <path class="st2" d="M714.1,99.6c0,.1,0,.2-.2.2l-10.8.8c-.8,0-1.4.6-1.4,1.3v19.7c0,.7.6,1.3,1.4,1.3l10.8.8c.1,0,.2,0,.2.2v1.3c0,.2,0,.2-.2.2h-27.1c-.2,0-.2,0-.2-.2v-1.3c0-.1,0-.2.2-.2l10.8-.8c.7,0,1.3-.6,1.3-1.3v-19.7c0-.7-.6-1.3-1.3-1.3l-10.8-.8c-.1,0-.2,0-.2-.2v-1.3c0-.2,0-.2.2-.2h27.1c.2,0,.2,0,.2.2v1.3Z"/>
  </g>
  <g>
    <rect class="st5" x="0" y="43.9" width="43.9" height="43.9"/>
    <rect class="st4" x="43.9" y="43.9" width="43.9" height="43.9"/>
    <rect class="st0" x="0" y="0" width="43.9" height="43.9"/>
    <rect class="st1" x="43.9" y="87.7" width="43.9" height="43.9"/>
    <path class="st6" d="M43.9,0s44-.9,43.9,43.9h-43.9V0Z"/>
    <path class="st1" d="M43.9,131.6S0,132.5,0,87.7h43.9v43.9Z"/>
  </g>
</svg>